<?xml version="1.0" encoding="UTF-8"?>
<svg version="1.1" xmlns="http://www.w3.org/2000/svg" width="128" height="128">
<path d="M0 0 C1.2684375 -0.00478363 2.536875 -0.00956726 3.84375 -0.01449585 C6.52430824 -0.01789684 9.20258142 -0.01121028 11.8828125 0.01220703 C15.30975855 0.04069708 18.73474681 0.02428549 22.16162109 -0.00565529 C25.44114993 -0.02811794 28.72044556 -0.01236811 32 0 C33.2271875 -0.01012115 34.454375 -0.02024231 35.71875 -0.03067017 C36.8634375 -0.01490936 38.008125 0.00085144 39.1875 0.01708984 C40.69376953 0.02305679 40.69376953 0.02305679 42.23046875 0.02914429 C46.23288761 0.9467034 47.62213343 2.32664273 50 5.6640625 C50.7093879 8.84228351 50.67357003 11.93428551 50.63110352 15.18017578 C50.63825882 16.13193695 50.64541412 17.08369812 50.65278625 18.06430054 C50.66967177 21.20481608 50.65027389 24.34390415 50.62890625 27.484375 C50.62973482 29.66722736 50.63219375 31.85007966 50.63621521 34.03292847 C50.63907294 38.60433769 50.62437145 43.17525686 50.59692383 47.74658203 C50.56280114 53.61262839 50.56887313 59.47780074 50.5875864 65.34388924 C50.59814148 69.8494295 50.58923277 74.35476547 50.57420158 78.86028671 C50.56901108 81.02368438 50.56951205 83.18710329 50.57574654 85.3504982 C50.5811822 88.3697139 50.56087763 91.38766643 50.53344727 94.40673828 C50.53997314 95.3044696 50.54649902 96.20220093 50.55322266 97.12713623 C50.45887035 103.21847922 50.45887035 103.21847922 47.99595642 105.6100769 C47.3372908 105.95789215 46.67862518 106.3057074 46 106.6640625 C45.45281749 108.80015023 45.45281749 108.80015023 45.5 111.1015625 C45.26306519 114.13728977 45.09736637 115.50178522 43.5 118.1640625 C40.33505258 120.06303095 37.76879257 120.1461024 34.12109375 120.1953125 C31.81048401 120.46113918 31.81048401 120.46113918 30.53515625 122.6640625 C29 124.6640625 29 124.6640625 26.625 125.1953125 C25.75875 125.185 24.8925 125.1746875 24 125.1640625 C22.700625 125.17953125 22.700625 125.17953125 21.375 125.1953125 C18.27832897 124.50263608 17.82838542 123.15687446 16 120.6640625 C13.80047484 120.04416463 13.80047484 120.04416463 11.4375 120.0390625 C7.19382504 119.85788754 7.19382504 119.85788754 5 117.6640625 C1.99929122 117.35193178 1.99929122 117.35193178 -1.57348633 117.39282227 C-2.24849686 117.38759552 -2.92350739 117.38236877 -3.61897278 117.37698364 C-5.08674096 117.36673241 -6.5545456 117.36096128 -8.0223484 117.35910225 C-10.34699656 117.35544521 -12.67121551 117.33873618 -14.99577332 117.31834412 C-21.60558075 117.26287584 -28.21545253 117.23227796 -34.82543945 117.20776367 C-38.86736277 117.19186867 -42.9089838 117.1616254 -46.95075035 117.12299919 C-48.49005607 117.11136174 -50.02941593 117.10541895 -51.56876564 117.10531807 C-53.72560686 117.10512553 -55.88161808 117.08682361 -58.03833008 117.06469727 C-59.26473709 117.05962662 -60.4911441 117.05455597 -61.75471497 117.04933167 C-66.3141336 116.50805304 -68.86100519 114.61835545 -72.3125 111.7265625 C-74.99716232 106.85439755 -74.97415094 102.08635854 -74 96.6640625 C-72.02789773 93.12269592 -69.63914958 90.48363729 -66 88.6640625 C-64.56279465 88.61323795 -63.12520581 88.57289087 -61.6875 88.5390625 C-58.22044083 88.22462011 -58.22044083 88.22462011 -55.54296875 86.18359375 C-54.75685261 84.95052194 -53.9875023 83.7066177 -53.234375 82.453125 C-51.02546369 79.25160164 -48.5607016 78.19884767 -45 76.6640625 C-41.0625 76.4140625 -41.0625 76.4140625 -38 76.6640625 C-37.79375 76.1071875 -37.5875 75.5503125 -37.375 74.9765625 C-34.10216985 69.47225725 -28.90560603 66.70418095 -23 64.6640625 C-21.3339558 64.61851597 -19.66578831 64.60995997 -18 64.6640625 C-18.01665459 63.57198235 -18.01665459 63.57198235 -18.03364563 62.45783997 C-18.13394863 55.58710123 -18.21001607 48.71647232 -18.25906086 41.84518909 C-18.28512388 38.31273405 -18.32045866 34.78088537 -18.37719727 31.2487793 C-18.44206064 27.18532589 -18.46620732 23.12250652 -18.48828125 19.05859375 C-18.51408768 17.7938472 -18.5398941 16.52910065 -18.56648254 15.22602844 C-18.5680485 10.32963082 -18.5651875 6.74825549 -16.28198242 2.3684082 C-11.00969409 -0.36951078 -5.85425575 -0.04828262 0 0 Z M-13 7.6640625 C-14.01781528 10.71750835 -14.12097241 12.76690042 -14.11352539 15.96166992 C-14.11344986 17.04256393 -14.11337433 18.12345795 -14.11329651 19.23710632 C-14.10813522 20.40280655 -14.10297394 21.56850677 -14.09765625 22.76953125 C-14.0962413 23.96387283 -14.09482635 25.15821442 -14.09336853 26.38874817 C-14.0877635 30.20971158 -14.07521011 34.03061675 -14.0625 37.8515625 C-14.05748565 40.43945228 -14.05292263 43.02734298 -14.04882812 45.61523438 C-14.03779243 51.96486368 -14.02104936 58.31445893 -14 64.6640625 C-12.68 64.6640625 -11.36 64.6640625 -10 64.6640625 C-9.67 46.5140625 -9.34 28.3640625 -9 9.6640625 C7.5 9.6640625 24 9.6640625 41 9.6640625 C41.04898438 14.69398437 41.09796875 19.72390625 41.1484375 24.90625 C41.18381086 28.08726008 41.21976333 31.26824231 41.2578125 34.44921875 C41.31818884 39.50142493 41.37638567 44.55359202 41.421875 49.60595703 C41.45867145 53.67795789 41.50501554 57.74974708 41.55806351 61.82156754 C41.57663758 63.37730329 41.59173435 64.93308447 41.60334396 66.48888779 C41.62015532 68.6632239 41.6491766 70.83707203 41.68115234 73.01123047 C41.69447601 74.25033173 41.70779968 75.48943298 41.7215271 76.76608276 C41.70198719 79.79020222 41.70198719 79.79020222 44 81.6640625 C44.4140625 83.828125 44.4140625 83.828125 44.625 86.2890625 C44.69976562 87.10632813 44.77453125 87.92359375 44.8515625 88.765625 C44.90054688 89.39210938 44.94953125 90.01859375 45 90.6640625 C45.33 90.6640625 45.66 90.6640625 46 90.6640625 C46.06952787 80.31975486 46.12282548 69.97550287 46.15543652 59.6310091 C46.17108864 54.82757116 46.1923187 50.02429316 46.22631836 45.22094727 C46.25892789 40.58495195 46.27685643 35.94911042 46.28463173 31.31300926 C46.29017237 29.54477709 46.30099191 27.77655327 46.31719017 26.00838661 C46.33898578 23.5305529 46.34196606 21.05335369 46.34057617 18.57543945 C46.351362 17.84535675 46.36214783 17.11527405 46.3732605 16.36306763 C46.34662967 11.97190725 45.77978112 9.11421694 43 5.6640625 C40.13744799 4.7098785 38.30625372 4.52736453 35.33251953 4.50292969 C34.38788849 4.49332214 33.44325745 4.4837146 32.47000122 4.47381592 C31.45122894 4.46956604 30.43245667 4.46531616 29.3828125 4.4609375 C28.33350555 4.45523743 27.28419861 4.44953735 26.20309448 4.44366455 C23.98224903 4.43421564 21.76138956 4.427681 19.54052734 4.42382812 C16.14525888 4.41412042 12.75059518 4.38309466 9.35546875 4.3515625 C7.19792026 4.34503255 5.04036744 4.33978205 2.8828125 4.3359375 C1.86808868 4.3235907 0.85336487 4.3112439 -0.19210815 4.29852295 C-7.12616797 4.24967401 -7.12616797 4.24967401 -13 7.6640625 Z M-6 12.6640625 C-6 16.6240625 -6 20.5840625 -6 24.6640625 C8.52 24.6640625 23.04 24.6640625 38 24.6640625 C38 20.7040625 38 16.7440625 38 12.6640625 C23.48 12.6640625 8.96 12.6640625 -6 12.6640625 Z M-6 28.6640625 C-6 32.6240625 -6 36.5840625 -6 40.6640625 C8.52 40.6640625 23.04 40.6640625 38 40.6640625 C38 36.7040625 38 32.7440625 38 28.6640625 C23.48 28.6640625 8.96 28.6640625 -6 28.6640625 Z M-6 44.6640625 C-6 48.6240625 -6 52.5840625 -6 56.6640625 C8.52 56.6640625 23.04 56.6640625 38 56.6640625 C38 52.7040625 38 48.7440625 38 44.6640625 C23.48 44.6640625 8.96 44.6640625 -6 44.6640625 Z M-6 60.6640625 C-6 62.6440625 -6 64.6240625 -6 66.6640625 C-4.46170882 68.24280318 -4.46170882 68.24280318 -2.3125 69.1640625 C0.74738128 70.80634144 2.51520649 72.0863536 4.4375 74.9765625 C7.25179459 77.92813975 7.7628328 78.12114219 11.625 78.2890625 C13.90927765 78.36764135 13.90927765 78.36764135 16 77.6640625 C16.48210937 77.00148438 16.96421875 76.33890625 17.4609375 75.65625 C19 73.6640625 19 73.6640625 21.375 73.1328125 C22.24125 73.143125 23.1075 73.1534375 24 73.1640625 C24.86625 73.15375 25.7325 73.1434375 26.625 73.1328125 C29 73.6640625 29 73.6640625 30.4375 75.6953125 C31.2109375 76.66984375 31.2109375 76.66984375 32 77.6640625 C33.98 77.6640625 35.96 77.6640625 38 77.6640625 C38 72.0540625 38 66.4440625 38 60.6640625 C23.48 60.6640625 8.96 60.6640625 -6 60.6640625 Z M-30 73.6640625 C-30.66 74.6540625 -31.32 75.6440625 -32 76.6640625 C-31.37351563 77.05078125 -30.74703125 77.4375 -30.1015625 77.8359375 C-29.28429688 78.35671875 -28.46703125 78.8775 -27.625 79.4140625 C-26.40683594 80.17976563 -26.40683594 80.17976563 -25.1640625 80.9609375 C-22.91444321 82.731396 -22.04093152 84.03313669 -21 86.6640625 C-22.625 87.4765625 -22.625 87.4765625 -25 87.6640625 C-28.125 85.2890625 -28.125 85.2890625 -31 82.6640625 C-34.714608 80.8067585 -38.94593118 81.22123344 -43 81.6640625 C-47.86640233 84.0071451 -50.39897101 86.9622024 -53 91.6640625 C-53 92.6540625 -53 93.6440625 -53 94.6640625 C-53.99 94.3340625 -54.98 94.0040625 -56 93.6640625 C-61.88076115 93.06752316 -61.88076115 93.06752316 -67 95.6640625 C-69.22189836 98.99691004 -69.74449798 100.80481451 -69.4921875 104.73046875 C-68.6385783 108.08393345 -66.6929666 109.64433755 -64 111.6640625 C-60.60473607 112.84877669 -57.33542187 112.78473334 -53.76269531 112.77758789 C-51.87118744 112.77747459 -51.87118744 112.77747459 -49.94146729 112.77735901 C-48.57035279 112.77225278 -47.19923869 112.7670368 -45.828125 112.76171875 C-44.42136689 112.75985278 -43.01460812 112.75842972 -41.60784912 112.75743103 C-37.91219273 112.75361994 -34.21657587 112.7438017 -30.52093506 112.73272705 C-26.74703506 112.72248264 -22.97312865 112.71792692 -19.19921875 112.71289062 C-11.79946118 112.70217814 -4.39973614 112.68511866 3 112.6640625 C3.16414922 109.72927624 3.16414922 109.72927624 3 106.6640625 C1.69451849 105.62796607 0.36045202 104.62684393 -1 103.6640625 C-1.53125 101.2890625 -1.53125 101.2890625 -1.5 98.6640625 C-1.51546875 97.3646875 -1.51546875 97.3646875 -1.53125 96.0390625 C-1 93.6640625 -1 93.6640625 1 92.1875 C3.25557795 90.81366414 3.25557795 90.81366414 3.53125 88.140625 C3.50202166 82.18765307 3.50202166 82.18765307 1.375 76.7265625 C-5.29610956 70.93323051 -10.22965104 69.31186905 -18.91015625 69.375 C-23.18222977 69.77466301 -26.58999366 71.0497243 -30 73.6640625 Z M23 76.6640625 C22.319375 77.4684375 21.63875 78.2728125 20.9375 79.1015625 C17.414262 82.17502543 15.41083182 82.31389149 10.890625 82.5234375 C8.98837483 82.45811799 8.98837483 82.45811799 8 83.6640625 C7.89473673 85.07926868 7.81571624 86.49646938 7.75 87.9140625 C7.38614905 91.78074976 7.07540541 92.57394384 4.4375 95.7265625 C3.633125 96.3659375 2.82875 97.0053125 2 97.6640625 C2.97424525 99.83737882 3.72962056 101.4267065 5.53515625 103.01171875 C7.41620228 105.13353867 7.45183834 106.49113459 7.625 109.2890625 C7.60877773 112.27554433 7.60877773 112.27554433 9 114.6640625 C10.41520618 114.76932577 11.83240688 114.84834626 13.25 114.9140625 C17.11668726 115.27791345 17.90988134 115.58865709 21.0625 118.2265625 C21.701875 119.0309375 22.34125 119.8353125 23 120.6640625 C25.17331632 119.68981725 26.762644 118.93444194 28.34765625 117.12890625 C30.46947617 115.24786022 31.82707209 115.21222416 34.625 115.0390625 C37.61148183 115.05528477 37.61148183 115.05528477 40 113.6640625 C40.10526327 112.24885632 40.18428376 110.83165562 40.25 109.4140625 C40.61385095 105.54737524 40.92459459 104.75418116 43.5625 101.6015625 C44.366875 100.9621875 45.17125 100.3228125 46 99.6640625 C45.02575475 97.49074618 44.27037944 95.9014185 42.46484375 94.31640625 C40.58379772 92.19458633 40.54816166 90.83699041 40.375 88.0390625 C40.39122227 85.05258067 40.39122227 85.05258067 39 82.6640625 C37.58479382 82.55879923 36.16759312 82.47977874 34.75 82.4140625 C29.98885222 81.96746835 28.11104013 80.34074629 25 76.6640625 C24.34 76.6640625 23.68 76.6640625 23 76.6640625 Z " fill="#0057DD" transform="translate(76,1.3359375)"/>
<path d="M0 0 C4.86739081 3.77159079 8.26829284 11.36022594 9.45703125 17.2734375 C9.5 19.125 9.5 19.125 9 22 C8.34 22.66 7.68 23.32 7 24 C5.68 24 4.36 24 3 24 C3 33.9 3 43.8 3 54 C1.68 54 0.36 54 -1 54 C-1 42.78 -1 31.56 -1 20 C0.32 19.67 1.64 19.34 3 19 C1.99556858 15.75491389 0.89698706 12.79397412 -0.625 9.75 C-2 7 -2 7 -2 5 C-2.66 5 -3.32 5 -4 5 C-4.268125 5.86625 -4.53625 6.7325 -4.8125 7.625 C-5.97055797 10.91632264 -7.44224651 13.88449302 -9 17 C-9 17.66 -9 18.32 -9 19 C-7.68 19.33 -6.36 19.66 -5 20 C-5 31.22 -5 42.44 -5 54 C-6.32 54 -7.64 54 -9 54 C-9 44.1 -9 34.2 -9 24 C-10.65 23.67 -12.3 23.34 -14 23 C-15 22 -15 22 -15.2734375 18.8984375 C-14.96711497 14.53115349 -13.65815847 11.40893382 -11.625 7.625 C-11.30789062 6.99722656 -10.99078125 6.36945312 -10.6640625 5.72265625 C-7.84040445 0.27534926 -6.12314261 -0.49984838 0 0 Z " fill="#0057DD" transform="translate(17,28)"/>
<path d="M0 0 C1.32 0 2.64 0 4 0 C4 11.22 4 22.44 4 34 C2.02 34.495 2.02 34.495 0 35 C1.00443142 38.24508611 2.10301294 41.20602588 3.625 44.25 C5 47 5 47 5 49 C5.66 49 6.32 49 7 49 C7.268125 48.13375 7.53625 47.2675 7.8125 46.375 C8.97055797 43.08367736 10.44224651 40.11550698 12 37 C12 36.34 12 35.68 12 35 C10.68 34.67 9.36 34.34 8 34 C8 22.78 8 11.56 8 0 C9.32 0 10.64 0 12 0 C12 9.9 12 19.8 12 30 C13.65 30.33 15.3 30.66 17 31 C18 32 18 32 18.2734375 35.1015625 C17.96711497 39.46884651 16.65815847 42.59106618 14.625 46.375 C14.30789062 47.00277344 13.99078125 47.63054688 13.6640625 48.27734375 C11.29161352 52.85419324 11.29161352 52.85419324 9 54 C3.59378238 54.46010363 3.59378238 54.46010363 1.5078125 52.84375 C-2.42392287 48.03603213 -6.3530969 41.20518807 -6.5 34.875 C-6 32 -6 32 -4 30 C-2.68 30 -1.36 30 0 30 C0 20.1 0 10.2 0 0 Z " fill="#0057DD" transform="translate(36,6)"/>
<path d="M0 0 C3.75027927 3.06841031 5.76910421 4.89302535 6.30078125 9.95703125 C6.46949943 15.73784894 6.10672113 19.20606577 2.0625 23.6875 C-1.81321876 27.10725185 -5.60476728 27.14210364 -10.5703125 26.97265625 C-13.7280101 26.59227354 -15.51835985 25.75088425 -17.9375 23.6875 C-18.700625 23.048125 -19.46375 22.40875 -20.25 21.75 C-22.93643905 16.87461061 -22.90511472 12.11330995 -21.9375 6.6875 C-17.45668491 -1.5858545 -8.50841907 -3.80163405 0 0 Z M-16.9375 8.6875 C-17.63597125 11.5271864 -17.63597125 13.8478136 -16.9375 16.6875 C-14.94828114 19.6713283 -13.55247432 21.29026841 -10 22.1640625 C-6.07686508 22.44640933 -4.26637629 21.90675086 -0.9375 19.6875 C1.28175086 16.35862371 1.82140933 14.54813492 1.5390625 10.625 C0.66526841 7.07252568 -0.9536717 5.67671886 -3.9375 3.6875 C-9.75413203 2.25679615 -13.54564906 3.59972359 -16.9375 8.6875 Z " fill="#0055DD" transform="translate(107.9375,87.3125)"/>
<path d="M0 0 C7.25666421 -0.4724049 12.09596354 -0.45814998 18 4 C21.11355548 7.19549115 22.49233162 9.55790165 23 14 C21.35 14.33 19.7 14.66 18 15 C17.4225 14.071875 16.845 13.14375 16.25 12.1875 C12.95966376 7.47575175 12.95966376 7.47575175 7.74609375 5.6015625 C5.49735516 5.3411452 3.2591599 5.13999068 1 5 C0.67 3.35 0.34 1.7 0 0 Z " fill="#0058DD" transform="translate(55,74)"/>
<path d="M0 0 C0.70125 0.00515625 1.4025 0.0103125 2.125 0.015625 C2.82625 0.01046875 3.5275 0.0053125 4.25 0 C6.125 0.265625 6.125 0.265625 8.125 2.265625 C8.390625 4.140625 8.390625 4.140625 8.375 6.265625 C8.38015625 6.966875 8.3853125 7.668125 8.390625 8.390625 C8.125 10.265625 8.125 10.265625 6.125 12.265625 C4.25 12.53125 4.25 12.53125 2.125 12.515625 C1.42375 12.52078125 0.7225 12.5259375 0 12.53125 C-1.875 12.265625 -1.875 12.265625 -3.875 10.265625 C-4.140625 8.390625 -4.140625 8.390625 -4.125 6.265625 C-4.13015625 5.564375 -4.1353125 4.863125 -4.140625 4.140625 C-3.75603481 1.4258707 -2.7147543 0.38459019 0 0 Z M1.125 5.265625 C1.125 5.925625 1.125 6.585625 1.125 7.265625 C1.785 7.265625 2.445 7.265625 3.125 7.265625 C3.125 6.605625 3.125 5.945625 3.125 5.265625 C2.465 5.265625 1.805 5.265625 1.125 5.265625 Z " fill="#0057DC" transform="translate(97.875,93.734375)"/>
<path d="M0 0 C3.125 1.875 3.125 1.875 5 4 C5 4.66 5 5.32 5 6 C3.02 6.99 3.02 6.99 1 8 C0.01 7.34 -0.98 6.68 -2 6 C-6.20056249 5.51580546 -6.20056249 5.51580546 -9.8125 7.375 C-11.06987173 9.00086797 -11.06987173 9.00086797 -12 11 C-13.65 10.67 -15.3 10.34 -17 10 C-16.79164195 6.35373413 -15.99170491 4.99042874 -13.5625 2.1875 C-9.44540856 -0.95501424 -4.95137415 -0.91448008 0 0 Z " fill="#0057DD" transform="translate(43,86)"/>
<path d="M0 0 C1.32 0 2.64 0 4 0 C4 1.32 4 2.64 4 4 C2.68 4 1.36 4 0 4 C0 2.68 0 1.36 0 0 Z " fill="#0158DD" transform="translate(106,66)"/>
<path d="M0 0 C1.32 0 2.64 0 4 0 C4 1.32 4 2.64 4 4 C2.68 4 1.36 4 0 4 C0 2.68 0 1.36 0 0 Z " fill="#0158DD" transform="translate(98,66)"/>
<path d="M0 0 C1.32 0 2.64 0 4 0 C4 1.32 4 2.64 4 4 C2.68 4 1.36 4 0 4 C0 2.68 0 1.36 0 0 Z " fill="#0158DD" transform="translate(82,50)"/>
<path d="M0 0 C1.32 0 2.64 0 4 0 C4 1.32 4 2.64 4 4 C2.68 4 1.36 4 0 4 C0 2.68 0 1.36 0 0 Z " fill="#0158DD" transform="translate(74,50)"/>
<path d="M0 0 C1.32 0 2.64 0 4 0 C4 1.32 4 2.64 4 4 C2.68 4 1.36 4 0 4 C0 2.68 0 1.36 0 0 Z " fill="#0158DD" transform="translate(106,34)"/>
<path d="M0 0 C1.32 0 2.64 0 4 0 C4 1.32 4 2.64 4 4 C2.68 4 1.36 4 0 4 C0 2.68 0 1.36 0 0 Z " fill="#0158DD" transform="translate(98,34)"/>
<path d="M0 0 C1.32 0 2.64 0 4 0 C4 1.32 4 2.64 4 4 C2.68 4 1.36 4 0 4 C0 2.68 0 1.36 0 0 Z " fill="#0158DD" transform="translate(82,18)"/>
<path d="M0 0 C1.32 0 2.64 0 4 0 C4 1.32 4 2.64 4 4 C2.68 4 1.36 4 0 4 C0 2.68 0 1.36 0 0 Z " fill="#0158DD" transform="translate(74,18)"/>
</svg>
