<?xml version="1.0" encoding="UTF-8"?>
<svg version="1.1" xmlns="http://www.w3.org/2000/svg" width="128" height="128">
<path d="M0 0 C3.83731689 3.16425675 7.47767704 6.93972909 9.71484375 11.4140625 C11.56335937 11.27097656 11.56335937 11.27097656 13.44921875 11.125 C22.83239504 10.47137464 31.47889953 10.18342527 40.71484375 12.4140625 C41.01390625 11.640625 41.31296875 10.8671875 41.62109375 10.0703125 C44.105848 4.03590932 47.94204844 1.06403377 53.73828125 -1.62890625 C61.21169579 -4.03177575 69.05507472 -3.76905569 76.21484375 -0.5234375 C82.29847014 3.00866796 86.59732438 7.65135426 88.71484375 14.4140625 C89.38184197 21.77431029 90.14705287 30.23018083 86.12890625 36.734375 C82.92779576 40.53679906 79.18799603 44.17748636 74.71484375 46.4140625 C74.87984375 47.6515625 75.04484375 48.8890625 75.21484375 50.1640625 C76.03276603 57.59547064 76.26972344 64.95891541 74.71484375 72.2890625 C74.32890447 74.42589147 74.32890447 74.42589147 74.71484375 76.4140625 C76.49708301 78.31391146 78.36763727 79.55653689 80.5703125 80.94140625 C84.66057284 83.75020069 87.15177379 87.72485261 88.71484375 92.4140625 C89.91665428 110.12599153 89.91665428 110.12599153 84.71484375 116.4140625 C79.8184549 121.68616436 74.66095602 125.03263637 67.44140625 125.73046875 C58.33259621 126.03150618 52.69924543 124.95575288 45.90234375 118.9140625 C40.71484375 112.98549107 40.71484375 112.98549107 40.71484375 110.4140625 C39.98523438 110.57003906 39.255625 110.72601563 38.50390625 110.88671875 C32.24011555 112.05441307 26.97751105 112.45884975 20.66430664 111.78955078 C13.73638492 110.77522616 13.73638492 110.77522616 7.41015625 112.98046875 C5.93373472 115.0574037 4.83341199 117.12960198 3.71484375 119.4140625 C-2.79034828 125.44326487 -8.99271028 125.94601568 -17.6015625 125.73828125 C-23.84769809 125.18851534 -27.95888178 122.96186307 -32.28515625 118.4140625 C-31.95515625 117.4240625 -31.62515625 116.4340625 -31.28515625 115.4140625 C-27.79862465 115.86393754 -25.18372983 116.95225162 -22.09765625 118.5390625 C-16.93288771 120.88122498 -12.72753356 120.92145203 -7.28515625 119.4140625 C-1.67306751 116.97990353 1.7630333 113.84539372 4.71484375 108.4140625 C6.60095835 102.75571871 6.62631444 96.67751311 4.21484375 91.1640625 C1.49363488 86.37279116 -3.01188947 82.4544031 -8.30078125 80.7734375 C-14.40466793 79.6680092 -18.98697467 80.08604802 -24.390625 83.0703125 C-28.53272174 86.00821205 -31.67783691 89.59210448 -33.28515625 94.4140625 C-33.37991469 96.37054567 -33.41504096 98.33029205 -33.41015625 100.2890625 C-33.41402344 101.83207031 -33.41402344 101.83207031 -33.41796875 103.40625 C-33.29510686 106.1887105 -32.91459861 108.70646124 -32.28515625 111.4140625 C-34.76015625 111.9090625 -34.76015625 111.9090625 -37.28515625 112.4140625 C-39.86552478 105.53996072 -40.67365989 98.11245861 -38.5625 90.96875 C-35.44325445 84.32614612 -30.37458977 80.23766029 -24.28515625 76.4140625 C-24.44757812 75.7953125 -24.61 75.1765625 -24.77734375 74.5390625 C-25.48963421 70.1557366 -25.42943029 65.84709068 -25.41015625 61.4140625 C-25.41595703 60.07988281 -25.41595703 60.07988281 -25.421875 58.71875 C-25.41556859 54.49345459 -25.36588798 50.53113574 -24.28515625 46.4140625 C-24.8884375 46.05054688 -25.49171875 45.68703125 -26.11328125 45.3125 C-32.79136548 41.1117696 -36.69328314 36.99283071 -39.28515625 29.4140625 C-40.300575 20.29890815 -39.46013427 12.70512375 -33.70703125 5.4140625 C-25.40017309 -3.5663247 -10.94059891 -6.6553315 0 0 Z M-31.09375 10.6328125 C-34.96293175 16.41755636 -34.84703171 21.57023519 -34.28515625 28.4140625 C-32.29482977 35.00701898 -26.62089972 39.49601 -20.78515625 42.8515625 C-14.00480632 44.37714123 -7.88277705 43.12455678 -1.28515625 41.4140625 C-1.28515625 42.4040625 -1.28515625 43.3940625 -1.28515625 44.4140625 C-7.49030099 46.55025987 -12.71200147 47.77923777 -19.28515625 47.4140625 C-21.60817453 57.53578502 -21.60817453 65.29233998 -19.28515625 75.4140625 C-18.17140625 75.3521875 -17.05765625 75.2903125 -15.91015625 75.2265625 C-7.74693783 75.28425309 -0.90009626 77.6397717 5.0234375 83.3359375 C10.23407341 89.73791973 11.37309845 97.38304802 11.71484375 105.4140625 C20.96095464 108.20534126 29.46873286 108.20534126 38.71484375 105.4140625 C38.72902344 104.66382812 38.74320312 103.91359375 38.7578125 103.140625 C39.1055103 95.67921815 40.1518705 89.49081834 44.71484375 83.4140625 C51.81777917 77.0027987 59.34466085 75.08528415 68.71484375 75.4140625 C72.04598588 66.6698144 72.04598588 56.1583106 68.71484375 47.4140625 C67.58046875 47.4759375 66.44609375 47.5378125 65.27734375 47.6015625 C58.37669938 47.5771786 51.74057173 45.30189878 46.28515625 41.0390625 C39.88489921 34.41591094 38.88201972 26.25919098 38.71484375 17.4140625 C29.74780015 14.65497216 20.6142514 14.17791427 11.71484375 17.4140625 C11.616875 18.34347656 11.51890625 19.27289062 11.41796875 20.23046875 C9.85127651 33.18269165 9.85127651 33.18269165 5.71484375 38.4140625 C3.46484375 39.3515625 3.46484375 39.3515625 1.71484375 39.4140625 C2.16859375 38.3621875 2.62234375 37.3103125 3.08984375 36.2265625 C3.36183594 35.57945313 3.63382813 34.93234375 3.9140625 34.265625 C4.52463246 32.85386811 5.19971738 31.46983491 5.90234375 30.1015625 C7.63064806 24.38486363 7.57742754 18.57424684 5.08984375 13.1015625 C1.73119069 7.27676559 -3.06274828 3.99040747 -9.3515625 1.921875 C-18.16309806 -0.39226565 -25.67520699 3.84033693 -31.09375 10.6328125 Z M47.1953125 9.3984375 C43.74485885 14.09615275 42.39963804 19.11193944 42.65234375 24.9140625 C43.71528583 31.2474257 46.82854951 36.34691688 52.0546875 40.08984375 C58.2104922 43.45704047 63.11659504 44.75030571 70 42.75 C76.82157699 40.13069665 81.00336145 36.07041105 84.08984375 29.4765625 C85.58499499 22.15032144 84.9818933 17.30803065 81.38671875 10.75390625 C78.00390452 6.01954708 73.7907013 3.25206703 68.19140625 1.7265625 C59.48693777 0.44097946 53.11126801 2.95451342 47.1953125 9.3984375 Z M46.15234375 88.6640625 C43.04612505 93.99405141 42.02169169 98.72528807 43.1640625 104.8046875 C44.61561643 109.87254053 46.55796279 113.03055475 50.71484375 116.4140625 C51.60171875 117.1565625 52.48859375 117.8990625 53.40234375 118.6640625 C58.39450252 121.3014294 63.38775687 122.11998354 68.9609375 120.9375 C75.34257711 118.74192645 79.26346331 115.61745336 82.52734375 109.6640625 C85.1153267 104.0704158 85.81274726 100.19214222 84.05078125 94.12890625 C81.4314779 87.30732926 77.3711923 83.1255448 70.77734375 80.0390625 C60.89418748 78.02209183 52.31817648 80.22115965 46.15234375 88.6640625 Z " fill="#0057DD" transform="translate(39.28515625,2.5859375)"/>
<path d="M0 0 C1.32 0.33 2.64 0.66 4 1 C4 12.22 4 23.44 4 35 C-1.37985925 33.92402815 -2.48487252 32.91685634 -6 29 C-5.67 28.01 -5.34 27.02 -5 26 C-3.68 26 -2.36 26 -1 26 C-1 20.39 -1 14.78 -1 9 C-2.4025 9.66 -3.805 10.32 -5.25 11 C-8.63334507 12.59216239 -10.12049035 13 -14 13 C-14 15.97 -14 18.94 -14 22 C-12.02 22.66 -10.04 23.32 -8 24 C-8.33 25.32 -8.66 26.64 -9 28 C-12.3 27.67 -15.6 27.34 -19 27 C-19 31.62 -19 36.24 -19 41 C-20.32 41 -21.64 41 -23 41 C-24.04976964 37.85069107 -24.10131595 35.61185544 -24.0625 32.3125 C-24.05347656 31.31863281 -24.04445313 30.32476562 -24.03515625 29.30078125 C-24.02355469 28.54152344 -24.01195312 27.78226563 -24 27 C-25.65 26.67 -27.3 26.34 -29 26 C-30.02232879 22.93301363 -30.1659049 20.71335122 -30.1875 17.5 C-30.20167969 16.5409375 -30.21585938 15.581875 -30.23046875 14.59375 C-30 12 -30 12 -28 9 C-25.1640625 8.6640625 -25.1640625 8.6640625 -21.625 8.625 C-14.39238147 8.26709723 -8.28873922 6.65084525 -2 3 C-1.34 2.01 -0.68 1.02 0 0 Z M-25 13 C-25 15.97 -25 18.94 -25 22 C-23.02 22 -21.04 22 -19 22 C-19 19.03 -19 16.06 -19 13 C-20.98 13 -22.96 13 -25 13 Z " fill="#0058DD" transform="translate(76,44)"/>
<path d="M0 0 C0.95841797 -0.00708984 1.91683594 -0.01417969 2.90429688 -0.02148438 C9.86867765 0.04196128 9.86867765 0.04196128 12.20703125 1.66796875 C14.67021255 5.21025805 13.90581027 9.71001192 13.875 13.875 C13.9049707 15.30682617 13.9049707 15.30682617 13.93554688 16.76757812 C13.93280274 20.68895 13.89778095 23.57463349 12.03515625 27.06640625 C7.93196235 29.2321522 4.00457209 29.01579266 -0.5625 28.9375 C-1.91601562 28.96070313 -1.91601562 28.96070313 -3.296875 28.984375 C-7.08903462 28.96193619 -9.79255804 28.85493841 -13.15625 27.03125 C-15.37509099 22.93872106 -15.14099853 19.01658109 -15.0625 14.4375 C-15.07796875 13.53515625 -15.0934375 12.6328125 -15.109375 11.703125 C-15.08705171 7.93048898 -14.96715142 5.20414728 -13.19140625 1.83984375 C-8.93805828 -0.42902984 -4.73868427 -0.0991892 0 0 Z M-9.5625 5.4375 C-9.5625 11.3775 -9.5625 17.3175 -9.5625 23.4375 C-3.6225 23.4375 2.3175 23.4375 8.4375 23.4375 C8.4375 17.4975 8.4375 11.5575 8.4375 5.4375 C2.4975 5.4375 -3.4425 5.4375 -9.5625 5.4375 Z " fill="#0057DD" transform="translate(103.5625,88.5625)"/>
<path d="M0 0 C2.328125 0.2734375 2.328125 0.2734375 3.328125 1.2734375 C3.89391249 7.68569575 1.62499252 13.85715515 -1.671875 19.2734375 C-5.90779275 23.48664255 -9.01383724 25.42054144 -14.984375 25.4609375 C-16.40169922 25.48220703 -16.40169922 25.48220703 -17.84765625 25.50390625 C-20.81594382 25.26168085 -22.98054665 24.51370357 -25.671875 23.2734375 C-25.296875 20.8359375 -25.296875 20.8359375 -24.671875 18.2734375 C-24.011875 17.9434375 -23.351875 17.6134375 -22.671875 17.2734375 C-23.15914062 16.42458984 -23.15914062 16.42458984 -23.65625 15.55859375 C-24.76105597 13.07278031 -24.94016935 11.41392703 -24.921875 8.7109375 C-24.92960937 7.56431641 -24.92960937 7.56431641 -24.9375 6.39453125 C-24.671875 4.2734375 -24.671875 4.2734375 -22.671875 1.2734375 C-21.351875 1.6034375 -20.031875 1.9334375 -18.671875 2.2734375 C-18.671875 2.9334375 -18.671875 3.5934375 -18.671875 4.2734375 C-16.43204 5.22364166 -16.43204 5.22364166 -13.671875 5.2734375 C-12.970625 4.4690625 -12.269375 3.6646875 -11.546875 2.8359375 C-7.67046668 -0.61912209 -5.01950099 -0.17447463 0 0 Z M-7.671875 5.2734375 C-8.331875 6.9234375 -8.991875 8.5734375 -9.671875 10.2734375 C-16.296875 10.3984375 -16.296875 10.3984375 -19.671875 9.2734375 C-19.26216795 13.14024122 -19.26216795 13.14024122 -16.671875 15.8984375 C-16.011875 16.3521875 -15.351875 16.8059375 -14.671875 17.2734375 C-14.341875 18.2634375 -14.011875 19.2534375 -13.671875 20.2734375 C-9.90344835 20.05809883 -8.67470167 19.27607573 -5.859375 16.6484375 C-3.24911754 13.28773102 -3.25032774 10.48891007 -3.671875 6.2734375 C-4.991875 5.9434375 -6.311875 5.6134375 -7.671875 5.2734375 Z " fill="#0057DD" transform="translate(35.671875,12.7265625)"/>
<path d="M0 0 C3.03441908 1.0324362 5.66406489 2.49778417 8.44921875 4.08203125 C9.51527344 4.67628906 10.58132812 5.27054687 11.6796875 5.8828125 C14.26171875 7.76953125 14.26171875 7.76953125 15.125 10 C15.17011719 10.58394531 15.21523438 11.16789062 15.26171875 11.76953125 C12.2772203 14.36893313 9.15218701 16.55567459 5.76171875 18.58203125 C5.02953125 19.02160156 4.29734375 19.46117188 3.54296875 19.9140625 C1.26171875 20.76953125 1.26171875 20.76953125 -3.73828125 19.76953125 C-3.73828125 13.49953125 -3.73828125 7.22953125 -3.73828125 0.76953125 C-1.73828125 -0.23046875 -1.73828125 -0.23046875 0 0 Z M1.26171875 6.76953125 C1.26171875 9.40953125 1.26171875 12.04953125 1.26171875 14.76953125 C3.57171875 13.44953125 5.88171875 12.12953125 8.26171875 10.76953125 C5.1684398 7.79277666 5.1684398 7.79277666 1.26171875 6.76953125 Z " fill="#0057DD" transform="translate(21.73828125,92.23046875)"/>
<path d="M0 0 C-0.33 1.65 -0.66 3.3 -1 5 C-2.65 5.33 -4.3 5.66 -6 6 C-6.33 7.98 -6.66 9.96 -7 12 C-5.68 12.33 -4.36 12.66 -3 13 C-3 14.32 -3 15.64 -3 17 C-4.32 17 -5.64 17 -7 17 C-7 20.96 -7 24.92 -7 29 C-8.32 29.33 -9.64 29.66 -11 30 C-12 29 -12 29 -12.09765625 26.27734375 C-12.08605469 25.17519531 -12.07445313 24.07304688 -12.0625 22.9375 C-12.05347656 21.83277344 -12.04445313 20.72804688 -12.03515625 19.58984375 C-12.02355469 18.73519531 -12.01195313 17.88054688 -12 17 C-13.32 17 -14.64 17 -16 17 C-15.67 15.35 -15.34 13.7 -15 12 C-14.01 12 -13.02 12 -12 12 C-12.103125 10.948125 -12.20625 9.89625 -12.3125 8.8125 C-12 5 -12 5 -9.9375 2.0625 C-6.35134537 -0.45543836 -4.29107165 -0.4206933 0 0 Z " fill="#0058DD" transform="translate(111,10)"/>
<path d="M0 0 C1.875 1.125 1.875 1.125 3 3 C3.39365568 6.14924548 3.52854531 8.11909116 1.875 10.875 C-0.88090884 12.52854531 -2.85075452 12.39365568 -6 12 C-7.875 10.875 -7.875 10.875 -9 9 C-9.39365568 5.85075452 -9.52854531 3.88090884 -7.875 1.125 C-5.11909116 -0.52854531 -3.14924548 -0.39365568 0 0 Z M-4 5 C-4 5.66 -4 6.32 -4 7 C-3.34 7 -2.68 7 -2 7 C-2 6.34 -2 5.68 -2 5 C-2.66 5 -3.32 5 -4 5 Z " fill="#0057DC" transform="translate(106,97)"/>
</svg>
