<?xml version="1.0" encoding="UTF-8"?>
<svg version="1.1" xmlns="http://www.w3.org/2000/svg" width="128" height="128">
<path d="M0 0 C1.13147461 -0.0038269 2.26294922 -0.00765381 3.42871094 -0.01159668 C5.81576428 -0.01431298 8.20284754 -0.00697167 10.58984375 0.00976562 C14.23765606 0.03117754 17.88349875 0.00995254 21.53125 -0.015625 C23.854171 -0.01298168 26.17709078 -0.00785661 28.5 0 C30.13146973 -0.01214539 30.13146973 -0.01214539 31.79589844 -0.02453613 C37.74879119 0.04895927 41.69552419 0.29148564 46.25 4.53125 C50.04737403 9.00132653 50.82116164 12.59013745 50.67578125 18.30078125 C50.67084908 19.38319344 50.67084908 19.38319344 50.66581726 20.48747253 C50.65545213 22.00109991 50.63559739 23.51468937 50.60668945 25.02807617 C50.56230013 27.354224 50.54520181 29.67933884 50.53320312 32.00585938 C50.51979083 33.47918171 50.50487112 34.95249127 50.48828125 36.42578125 C50.48089432 37.12363235 50.47350739 37.82148346 50.46589661 38.54048157 C50.36836982 43.41288018 50.36836982 43.41288018 49.25 44.53125 C46.25 44.65625 46.25 44.65625 43.25 44.53125 C41.46944791 42.75069791 42.05663381 40.11403495 42.00390625 37.703125 C41.97103516 36.51074219 41.93816406 35.31835938 41.90429688 34.08984375 C41.84347755 31.56648881 41.78614158 29.04304732 41.73242188 26.51953125 C41.69826172 25.32199219 41.66410156 24.12445312 41.62890625 22.890625 C41.6038501 21.79202148 41.57879395 20.69341797 41.55297852 19.56152344 C41.23832612 16.41449243 40.83547633 14.27152014 39.25 11.53125 C34.96235453 8.8321487 30.09042396 9.24180944 25.1875 9.265625 C24.31859131 9.26371155 23.44968262 9.2617981 22.55444336 9.25982666 C20.72216501 9.25846911 18.88987691 9.26213545 17.05761719 9.27050781 C14.259545 9.28121348 11.46211481 9.27059798 8.6640625 9.2578125 C6.88020692 9.25913417 5.09635174 9.26169672 3.3125 9.265625 C2.47904053 9.26157654 1.64558105 9.25752808 0.78686523 9.25335693 C-5.25139018 9.26287746 -5.25139018 9.26287746 -10.75 11.53125 C-12.71372819 15.38512179 -13.00264375 18.60463798 -13.00878906 22.89453125 C-13.01509338 24.15934326 -13.02139771 25.42415527 -13.02789307 26.72729492 C-13.02431304 28.09944804 -13.02021102 29.47159988 -13.015625 30.84375 C-13.01697336 32.25952216 -13.01891533 33.67529387 -13.02142334 35.09106445 C-13.02436654 38.05326765 -13.02010292 41.01534995 -13.01074219 43.97753906 C-12.99934804 47.76711146 -13.00591183 51.55640051 -13.01788712 55.34596252 C-13.02512748 58.2679659 -13.02280781 61.18990253 -13.01763153 64.11190796 C-13.01630105 65.5089013 -13.01792161 66.90590079 -13.02259064 68.30288696 C-13.02769141 70.25791298 -13.01853359 72.21296036 -13.00878906 74.16796875 C-13.00719788 75.27873779 -13.00560669 76.38950684 -13.00396729 77.53393555 C-12.74298812 80.61400401 -12.15333855 82.78615854 -10.75 85.53125 C-6.65390697 88.00866433 -2.10333787 87.95610682 2.5625 88.15625 C3.30306641 88.19492188 4.04363281 88.23359375 4.80664062 88.2734375 C6.62071309 88.36706705 8.43532116 88.45021851 10.25 88.53125 C10.24214478 86.94872437 10.24214478 86.94872437 10.23413086 85.33422852 C10.21608099 81.4336837 10.20456805 77.5331426 10.19506836 73.63256836 C10.1900281 71.94180684 10.18319595 70.25104971 10.17456055 68.56030273 C10.16248143 66.13524293 10.15676877 63.71024056 10.15234375 61.28515625 C10.14718246 60.52473526 10.14202118 59.76431427 10.13670349 58.98085022 C10.13650762 57.1639243 10.18802723 55.34711873 10.25 53.53125 C12.125588 51.655662 14.83288718 52.40462021 17.32867432 52.39572144 C18.63937897 52.39875778 18.63937897 52.39875778 19.9765625 52.40185547 C20.89193787 52.40010315 21.80731323 52.39835083 22.75042725 52.39654541 C25.79197049 52.39212539 28.83345611 52.39506541 31.875 52.3984375 C33.9786785 52.3977645 36.08235692 52.39679452 38.18603516 52.39553833 C42.60124449 52.39406115 47.01643363 52.39621655 51.43164062 52.40087891 C57.10492561 52.4065762 62.77816329 52.4032973 68.45144653 52.39730644 C72.79728556 52.39370136 77.14311328 52.39483917 81.48895264 52.39743423 C83.5814413 52.39810365 85.67393097 52.39727457 87.76641846 52.39495468 C90.68545266 52.39242902 93.60440912 52.39626752 96.5234375 52.40185547 C97.3972406 52.39983124 98.2710437 52.39780701 99.17132568 52.39572144 C105.13573764 52.41698764 105.13573764 52.41698764 106.25 53.53125 C106.34971155 55.82636496 106.37799866 58.12459549 106.37939453 60.421875 C106.38202301 61.50233093 106.38202301 61.50233093 106.38470459 62.60461426 C106.38912288 64.99685034 106.38618521 67.3890131 106.3828125 69.78125 C106.38348555 71.43652358 106.38445558 73.09179707 106.38571167 74.74707031 C106.38718861 78.22071267 106.38503421 81.69432937 106.38037109 85.16796875 C106.3746738 89.63057498 106.37795283 94.09312108 106.38394356 98.5557251 C106.38754927 101.9751023 106.38641054 105.39446515 106.38381577 108.81384277 C106.38314652 110.45975756 106.38397482 112.10567363 106.38629532 113.75158691 C106.38882202 116.04796831 106.38498103 118.34425099 106.37939453 120.640625 C106.37859894 121.94999023 106.37780334 123.25935547 106.37698364 124.60839844 C106.25 127.53125 106.25 127.53125 105.25 128.53125 C102.33342371 128.63183243 99.44049054 128.66740211 96.5234375 128.66064453 C95.60806213 128.66239685 94.69268677 128.66414917 93.74957275 128.66595459 C90.70802951 128.67037461 87.66654389 128.66743459 84.625 128.6640625 C82.5213215 128.6647355 80.41764308 128.66570548 78.31396484 128.66696167 C73.89875551 128.66843885 69.48356637 128.66628345 65.06835938 128.66162109 C59.39507439 128.6559238 53.72183671 128.6592027 48.04855347 128.66519356 C43.70271444 128.66879864 39.35688672 128.66766083 35.01104736 128.66506577 C32.9185587 128.66439635 30.82606903 128.66522543 28.73358154 128.66754532 C25.81454734 128.67007098 22.89559088 128.66623248 19.9765625 128.66064453 C18.66585785 128.66368088 18.66585785 128.66368088 17.32867432 128.66677856 C11.36426236 128.64551236 11.36426236 128.64551236 10.25 127.53125 C10.16209025 125.23973583 10.14305962 122.94552476 10.15234375 120.65234375 C10.1537587 119.9656813 10.15517365 119.27901886 10.15663147 118.57154846 C10.16224521 116.37057199 10.17479993 114.16969591 10.1875 111.96875 C10.19251324 110.47981917 10.19707645 108.99088676 10.20117188 107.50195312 C10.21221907 103.84501925 10.22949287 100.18814442 10.25 96.53125 C9.29746338 96.5626709 9.29746338 96.5626709 8.32568359 96.59472656 C5.42561924 96.67829581 2.52580884 96.73003774 -0.375 96.78125 C-1.37402344 96.81476563 -2.37304688 96.84828125 -3.40234375 96.8828125 C-9.36125363 96.96173846 -13.18115612 96.77676031 -17.75 92.53125 C-21.4292529 87.90298261 -22.25339141 84.84743749 -22.26757812 78.96875 C-22.2745874 78.23624023 -22.28159668 77.50373047 -22.28881836 76.74902344 C-22.30633397 74.34270618 -22.29479954 71.93757791 -22.28125 69.53125 C-22.28394679 67.85025814 -22.28783077 66.16926779 -22.29284668 64.48828125 C-22.29873298 60.97120257 -22.29020709 57.4545312 -22.27148438 53.9375 C-22.24869501 49.43822811 -22.2618228 44.93991073 -22.28577423 40.44067383 C-22.30025591 36.97128153 -22.29561544 33.50211406 -22.28526306 30.03271484 C-22.28260231 28.37418504 -22.28584257 26.71563456 -22.29518127 25.05712891 C-22.30538646 22.73545579 -22.28979279 20.41530989 -22.26757812 18.09375 C-22.26439575 16.77503906 -22.26121338 15.45632812 -22.25793457 14.09765625 C-21.50407585 8.80452083 -19.08043258 5.76975052 -15.234375 2.18945312 C-10.16268036 -0.22415043 -5.55045898 -0.04132008 0 0 Z M18.25 60.53125 C18.25 80.33125 18.25 100.13125 18.25 120.53125 C44.65 120.53125 71.05 120.53125 98.25 120.53125 C98.25 100.73125 98.25 80.93125 98.25 60.53125 C71.85 60.53125 45.45 60.53125 18.25 60.53125 Z " fill="#0058DD" transform="translate(21.75,-0.53125)"/>
<path d="M0 0 C1.3303125 0.433125 1.3303125 0.433125 2.6875 0.875 C3.5625 2.875 3.5625 2.875 3.6875 5.875 C1.95096566 8.76566179 -0.12227399 11.31656208 -2.3125 13.875 C-1.24792643 16.10597591 -0.3158899 17.87108857 1.3125 19.75 C3.14086519 22.57565529 2.98075908 24.57583541 2.6875 27.875 C1.6875 28.875 1.6875 28.875 -1.125 29.25 C-4.3125 28.875 -4.3125 28.875 -6.5625 26.375 C-7.14 25.55 -7.7175 24.725 -8.3125 23.875 C-8.9725 23.875 -9.6325 23.875 -10.3125 23.875 C-11.17875 25.1125 -11.17875 25.1125 -12.0625 26.375 C-14.3125 28.875 -14.3125 28.875 -17.5 29.25 C-20.3125 28.875 -20.3125 28.875 -21.3125 27.875 C-21.73117599 24.87448871 -21.877239 22.74975307 -20.1953125 20.14453125 C-18.95727451 18.67217534 -17.63918039 17.26801441 -16.3125 15.875 C-17.34837181 13.64389149 -18.31802411 11.86862603 -19.9375 10 C-21.75187089 7.19597226 -21.5355809 5.14685323 -21.3125 1.875 C-18.0625 1.0625 -18.0625 1.0625 -14.3125 0.875 C-12 3.3125 -12 3.3125 -10.3125 5.875 C-9.6525 5.875 -8.9925 5.875 -8.3125 5.875 C-7.57 4.864375 -6.8275 3.85375 -6.0625 2.8125 C-3.74509678 -0.14132441 -3.74509678 -0.14132441 0 0 Z " fill="#0057DD" transform="translate(97.3125,67.125)"/>
<path d="M0 0 C3 0.125 3 0.125 4 1.125 C4.21110519 3.60841801 4.37594795 6.07456713 4.5 8.5625 C4.57707326 13.49414431 4.57707326 13.49414431 6 18.125 C7.32 18.125 8.64 18.125 10 18.125 C11.76515437 14.59469127 11.41070388 10.3533832 11.60546875 6.44726562 C11.89920831 1.22579169 11.89920831 1.22579169 13 0.125 C16 0 16 0 19 0.125 C21.29894795 2.42394795 20.32741324 7.730176 20.375 10.8125 C20.41238281 11.71162109 20.44976562 12.61074219 20.48828125 13.53710938 C20.54742797 18.01583046 20.50019333 21.14284412 17.6015625 24.70703125 C13.58691642 28.43836146 10.8850042 28.51525328 5.55078125 28.484375 C1.44131496 27.90539966 -0.21349577 26.12585071 -3 23.125 C-4.19219354 20.74061291 -4.12916022 19.24843998 -4.1328125 16.58984375 C-4.13410156 15.69845703 -4.13539062 14.80707031 -4.13671875 13.88867188 C-4.13285156 12.95603516 -4.12898438 12.02339844 -4.125 11.0625 C-4.12886719 10.12599609 -4.13273437 9.18949219 -4.13671875 8.22460938 C-4.13542969 7.33451172 -4.13414063 6.44441406 -4.1328125 5.52734375 C-4.13168457 4.70741943 -4.13055664 3.88749512 -4.12939453 3.04272461 C-3.9127104 -0.16869774 -3.27622996 0.13650958 0 0 Z " fill="#0058DC" transform="translate(52,67.875)"/>
<path d="M0 0 C3 0.125 3 0.125 4 1.125 C4.21110519 3.60841801 4.37594795 6.07456713 4.5 8.5625 C4.57707326 13.49414431 4.57707326 13.49414431 6 18.125 C7.32 18.125 8.64 18.125 10 18.125 C11.76515437 14.59469127 11.41070388 10.3533832 11.60546875 6.44726562 C11.89920831 1.22579169 11.89920831 1.22579169 13 0.125 C16 0 16 0 19 0.125 C21.29894795 2.42394795 20.32741324 7.730176 20.375 10.8125 C20.41238281 11.71162109 20.44976562 12.61074219 20.48828125 13.53710938 C20.54742797 18.01583046 20.50019333 21.14284412 17.6015625 24.70703125 C13.58691642 28.43836146 10.8850042 28.51525328 5.55078125 28.484375 C1.44131496 27.90539966 -0.21349577 26.12585071 -3 23.125 C-4.19219354 20.74061291 -4.12916022 19.24843998 -4.1328125 16.58984375 C-4.13410156 15.69845703 -4.13539062 14.80707031 -4.13671875 13.88867188 C-4.13285156 12.95603516 -4.12898437 12.02339844 -4.125 11.0625 C-4.12886719 10.12599609 -4.13273438 9.18949219 -4.13671875 8.22460938 C-4.13542969 7.33451172 -4.13414063 6.44441406 -4.1328125 5.52734375 C-4.13168457 4.70741943 -4.13055664 3.88749512 -4.12939453 3.04272461 C-3.9127104 -0.16869774 -3.27622996 0.13650958 0 0 Z " fill="#0058DC" transform="translate(20,15.875)"/>
<path d="M0 0 C0.82290527 0.00202423 1.64581055 0.00404846 2.49365234 0.00613403 C3.33331543 0.00517731 4.17297852 0.00422058 5.03808594 0.00323486 C6.81689529 0.00255306 8.59570712 0.00440737 10.37451172 0.00857544 C13.10699011 0.01392371 15.83930411 0.00863048 18.57177734 0.00222778 C20.29573604 0.00288856 22.01969464 0.00416973 23.74365234 0.00613403 C24.56655762 0.0041098 25.38946289 0.00208557 26.23730469 0 C32.0037018 0.02399599 32.0037018 0.02399599 33.11865234 1.13894653 C33.24365234 4.13894653 33.24365234 4.13894653 33.11865234 7.13894653 C31.27588726 8.98171162 28.68901476 8.26769065 26.23730469 8.27789307 C25.41439941 8.27586884 24.59149414 8.2738446 23.74365234 8.27175903 C22.90398926 8.27271576 22.06432617 8.27367249 21.19921875 8.2746582 C19.4204094 8.27534001 17.64159757 8.2734857 15.86279297 8.26931763 C13.13031458 8.26396936 10.39800058 8.26926259 7.66552734 8.27566528 C5.94156865 8.2750045 4.21761005 8.27372334 2.49365234 8.27175903 C1.67074707 8.27378326 0.8478418 8.2758075 0 8.27789307 C-5.76639711 8.25389708 -5.76639711 8.25389708 -6.88134766 7.13894653 C-7.00634766 4.13894653 -7.00634766 4.13894653 -6.88134766 1.13894653 C-5.03858257 -0.70381855 -2.45171007 0.01020242 0 0 Z " fill="#0058DD" transform="translate(78.88134765625,103.86105346679688)"/>
<path d="M0 0 C3 0.125 3 0.125 4 1.125 C4.09971786 3.03958282 4.13080589 4.95782317 4.1328125 6.875 C4.13474609 8.62296875 4.13474609 8.62296875 4.13671875 10.40625 C4.13285156 11.6334375 4.12898438 12.860625 4.125 14.125 C4.12886719 15.3521875 4.13273437 16.579375 4.13671875 17.84375 C4.13542969 19.0090625 4.13414063 20.174375 4.1328125 21.375 C4.13168457 22.45265625 4.13055664 23.5303125 4.12939453 24.640625 C4 27.125 4 27.125 3 28.125 C0 28.25 0 28.25 -3 28.125 C-4.77449594 26.35050406 -4.13030072 23.77482739 -4.1328125 21.375 C-4.13410156 20.2096875 -4.13539062 19.044375 -4.13671875 17.84375 C-4.13285156 16.6165625 -4.12898438 15.389375 -4.125 14.125 C-4.12886719 12.8978125 -4.13273437 11.670625 -4.13671875 10.40625 C-4.13542969 9.2409375 -4.13414063 8.075625 -4.1328125 6.875 C-4.13168457 5.79734375 -4.13055664 4.7196875 -4.12939453 3.609375 C-3.93972678 -0.03224581 -3.70414701 0.15433946 0 0 Z " fill="#0058DC" transform="translate(52,15.875)"/>
<path d="M0 0 C1.27875 0.00257812 2.5575 0.00515625 3.875 0.0078125 C5.15375 0.00523438 6.4325 0.00265625 7.75 0 C10.875 0.1328125 10.875 0.1328125 11.875 1.1328125 C12 4.1328125 12 4.1328125 11.875 7.1328125 C10.875 8.1328125 10.875 8.1328125 7.75 8.265625 C6.47125 8.26304688 5.1925 8.26046875 3.875 8.2578125 C2.59625 8.26039062 1.3175 8.26296875 0 8.265625 C-3.125 8.1328125 -3.125 8.1328125 -4.125 7.1328125 C-4.25 4.1328125 -4.25 4.1328125 -4.125 1.1328125 C-3.125 0.1328125 -3.125 0.1328125 0 0 Z " fill="#0058DD" transform="translate(52.125,103.8671875)"/>
</svg>
